<?xml version="1.0" encoding="UTF-8" standalone="no"?>
<!-- Created with Inkscape (http://www.inkscape.org/) -->

<svg
    version="1.1"
    id="svg636"
    xml:space="preserve"
    width="682.66669"
    height="682.66669"
    viewBox="0 0 682.66669 682.66669"
    xmlns="http://www.w3.org/2000/svg"
    xmlns:svg="http://www.w3.org/2000/svg"><defs
     id="defs640"><clipPath
       clipPathUnits="userSpaceOnUse"
       id="clipPath650"><path
         d="M 0,512 H 512 V 0 H 0 Z"
         id="path648" /></clipPath></defs>
    <g
        id="g642"
        transform="matrix(1.3333333,0,0,-1.3333333,0,682.66667)"><g
       id="g644"><g
         id="g646"
         clip-path="url(#clipPath650)"><g
           id="g652"
           transform="translate(44.082,381.0029)"><path
             d="m 0,0 c -21.655,-36.632 -34.082,-79.366 -34.082,-125.003 0,-135.862 110.138,-246 246,-246 135.862,0 246,110.138 246,246 0,9.413 -0.547,18.696 -1.576,27.834 -4.039,-0.873 -8.227,-1.344 -12.528,-1.344 -10.073,0 -19.554,2.528 -27.855,6.973 -18.997,-11.755 -43.68,-12.958 -64.382,-1.005 -15.358,8.867 -25.528,23.255 -29.486,39.208 -23.052,6.094 -43.331,21.995 -54.191,45.296 -10.76,23.09 -9.998,48.584 -0.099,70.035 -31.143,1.668 -55.883,27.444 -55.883,59.003 -57.864,0 -111.063,-19.978 -153.073,-53.414"
             style="fill:none;stroke:#000000;stroke-width:20;stroke-linecap:round;stroke-linejoin:round;stroke-miterlimit:10;stroke-dasharray:none;stroke-opacity:1"
             id="path654" /></g><g
        id="g656"
        transform="translate(463.8477,395.353)"><path
             d="m 0,0 c -4.824,3.007 -10.813,3.664 -16.147,1.703 -0.03,-0.011 -0.058,-0.021 -0.086,-0.032 -14.115,-5.216 -24.632,-15.876 -30.061,-28.723 -3.107,-7.354 -1.228,-15.871 4.627,-21.3 5.152,-4.777 10.91,-8.902 17.109,-12.322 6.314,-3.483 14.106,-2.95 19.977,1.236 9.305,6.633 16.719,15.199 21.943,24.872 3.514,6.504 2.912,14.518 -1.592,20.378 C 11.445,-8.563 6.077,-3.788 0,0 Z"
             style="fill:none;stroke:#000000;stroke-width:20;stroke-linecap:round;stroke-linejoin:round;stroke-miterlimit:10;stroke-dasharray:none;stroke-opacity:1"
             id="path658" /></g><g
        id="g660"
        transform="translate(196.8516,349.7446)"><path
             d="m 0,0 c 0,-18.919 -15.336,-34.255 -34.255,-34.255 -18.919,0 -34.256,15.336 -34.256,34.255 0,18.919 15.337,34.255 34.256,34.255 C -15.336,34.255 0,18.919 0,0 Z"
             style="fill:none;stroke:#000000;stroke-width:20;stroke-linecap:round;stroke-linejoin:round;stroke-miterlimit:10;stroke-dasharray:none;stroke-opacity:1"
             id="path662" /></g><g
        id="g664"
        transform="translate(215.1924,165.9775)"><path
             d="m 0,0 c 0,28.457 -23.069,51.525 -51.525,51.525 -28.457,0 -51.526,-23.068 -51.526,-51.525 0,-28.457 23.069,-51.525 51.526,-51.525 C -23.069,-51.525 0,-28.457 0,0 Z"
             style="fill:none;stroke:#000000;stroke-width:20;stroke-linecap:round;stroke-linejoin:round;stroke-miterlimit:10;stroke-dasharray:none;stroke-opacity:1"
             id="path666" /></g><g
        id="g668"
        transform="translate(410.6973,204.9619)"><path
             d="m 0,0 c 0,-18.006 -14.597,-32.604 -32.603,-32.604 -18.006,0 -32.603,14.598 -32.603,32.604 0,18.006 14.597,32.604 32.603,32.604 C -14.597,32.604 0,18.006 0,0 Z"
             style="fill:none;stroke:#000000;stroke-width:20;stroke-linecap:round;stroke-linejoin:round;stroke-miterlimit:10;stroke-dasharray:none;stroke-opacity:1"
             id="path670" /></g><g
        id="g672"
        transform="translate(276.4883,274.5386)"><path
             d="m 0,0 c 0,-11.245 -9.116,-20.361 -20.361,-20.361 -11.245,0 -20.362,9.116 -20.362,20.361 0,11.246 9.117,20.361 20.362,20.361 C -9.116,20.361 0,11.246 0,0 Z"
             style="fill:none;stroke:#000000;stroke-width:20;stroke-linecap:round;stroke-linejoin:round;stroke-miterlimit:10;stroke-dasharray:none;stroke-opacity:1"
             id="path674" /></g><g
        id="g676"
        transform="translate(335.4541,111.9214)"><path
             d="m 0,0 c 0,-11.245 -9.116,-20.361 -20.361,-20.361 -11.245,0 -20.362,9.116 -20.362,20.361 0,11.246 9.117,20.361 20.362,20.361 C -9.116,20.361 0,11.246 0,0 Z"
             style="fill:none;stroke:#000000;stroke-width:20;stroke-linecap:round;stroke-linejoin:round;stroke-miterlimit:10;stroke-dasharray:none;stroke-opacity:1"
             id="path678" /></g><g
        id="g680"
        transform="translate(396.7656,440.8345)"><path
             d="M 0,0 H -25.531 C -38.3,0 -47.489,12.265 -43.9,24.519 l 4.602,15.719 C -36.909,48.395 -29.428,54 -20.929,54 h 16.326 c 8.499,0 15.981,-5.605 18.37,-13.762 L 18.369,24.519 C 21.957,12.265 12.769,0 0,0 Z"
             style="fill:none;stroke:#000000;stroke-width:20;stroke-linecap:round;stroke-linejoin:round;stroke-miterlimit:10;stroke-dasharray:none;stroke-opacity:1"
             id="path682" /></g><g
        id="g684"
        transform="translate(458.9434,465.7124)"><path
             d="m 0,0 c 0,-11.89 9.639,-21.528 21.528,-21.528 11.89,0 21.529,9.638 21.529,21.528 0,11.89 -9.639,21.528 -21.529,21.528 C 9.639,21.528 0,11.89 0,0 Z"
             style="fill:none;stroke:#000000;stroke-width:20;stroke-linecap:round;stroke-linejoin:round;stroke-miterlimit:10;stroke-dasharray:none;stroke-opacity:1"
             id="path686" /></g><g
        id="g688"
        transform="translate(70.3838,417.5186)"><path
             d="M 0,0 V 0"
             style="fill:none;stroke:#000000;stroke-width:20;stroke-linecap:round;stroke-linejoin:round;stroke-miterlimit:10;stroke-dasharray:none;stroke-opacity:1"
             id="path690" /></g></g></g></g></svg>
